<svg width="21" height="21" viewBox="0 0 21 21" fill="none" xmlns="http://www.w3.org/2000/svg">
<path d="M18.375 10.3165C18.375 13.9477 16.4412 18.3752 10.6138 18.3752C6.23403 18.4043 2.65871 14.8799 2.625 10.5002C2.65871 6.1205 6.23403 2.59608 10.6138 2.62518C12.4256 2.6319 14.1824 3.24833 15.6012 4.37518C15.6992 4.45527 15.7595 4.57259 15.7675 4.69893C15.768 4.82676 15.7176 4.94954 15.6275 5.04018C15.0579 5.56098 14.5147 6.11 14 6.68518C13.8503 6.84994 13.5994 6.87274 13.4225 6.73768C12.6141 6.13942 11.6277 5.83116 10.6225 5.86268C8.03712 5.86268 5.94125 7.95855 5.94125 10.544C5.94125 13.1293 8.03712 15.2252 10.6225 15.2252C13.2475 15.2252 14.3587 14.1052 14.9362 12.119H10.9375C10.6959 12.119 10.5 11.9231 10.5 11.6815V9.36271C10.5 9.12104 10.6959 8.92521 10.9375 8.92521H17.9375C18.1389 8.9239 18.3089 9.07493 18.3313 9.27521C18.3637 9.62128 18.3783 9.96883 18.375 10.3165Z" fill="white"/>
</svg>
