<svg width="151" height="64" viewBox="0 0 151 64" fill="none" xmlns="http://www.w3.org/2000/svg">
<path d="M11.3248 49.4086V16.231H18.2116V49.4086H11.3248ZM1.12207 19.303V12.7494H28.4143V19.303H1.12207ZM29.7167 49.4086V23.2966H35.9913V26.7782H36.3994C36.8417 25.959 37.4197 25.2422 38.1339 24.6278C38.8823 23.9793 39.7495 23.4673 40.7356 23.0918C41.7219 22.7164 42.7761 22.5286 43.8984 22.5286C44.5787 22.5286 45.1909 22.5798 45.7349 22.6822C46.2792 22.7846 46.7552 22.9212 47.1633 23.0918V29.799C46.4491 29.5259 45.7349 29.3042 45.0207 29.1334C44.3407 28.9286 43.6094 28.8262 42.8271 28.8262C41.5008 28.8262 40.3446 29.1675 39.3582 29.8502C38.4061 30.4987 37.6748 31.4034 37.1646 32.5638C36.6545 33.6902 36.3994 34.9702 36.3994 36.4038V49.4086H29.7167ZM73.1623 29.031V23.2966H78.0596V29.031H73.1623ZM77.8046 49.4086V21.863C77.8046 19.9174 78.1956 18.2278 78.9779 16.7942C79.7941 15.3606 80.9164 14.2684 82.3448 13.5174C83.8071 12.7324 85.5247 12.3398 87.4971 12.3398C88.1774 12.3398 88.8745 12.391 89.5887 12.4934C90.3029 12.5958 90.9831 12.7324 91.6292 12.903V19.4566C91.051 19.1836 90.4898 18.9788 89.9458 18.8422C89.4017 18.7057 88.8574 18.6374 88.3133 18.6374C87.1571 18.6374 86.2218 18.9788 85.5076 19.6614C84.8273 20.31 84.4873 21.2316 84.4873 22.4262V49.4086H77.8046ZM84.2323 29.031V23.2966H95.0471V29.031H84.2323ZM94.7921 49.4086V22.9382C94.7921 19.6273 95.6593 17.1014 97.3937 15.3606C99.1621 13.6198 101.679 12.7494 104.944 12.7494H112.29V18.8934H104.995C103.941 18.8934 103.09 19.2348 102.444 19.9174C101.798 20.6001 101.475 21.5729 101.475 22.8358V49.4086H94.7921ZM101.22 29.031V23.2966H107.852V29.031H101.22ZM111.78 49.4086V12.7494H118.462V49.4086H111.78ZM134.97 59.2902C134.868 59.5291 134.765 59.7339 134.663 59.9046C134.595 60.1094 134.528 60.2971 134.459 60.4678H127.266C127.402 60.1947 127.658 59.6146 128.032 58.727C128.44 57.8738 128.78 57.1398 129.052 56.5254C129.256 56.1158 129.494 55.5867 129.766 54.9382C130.038 54.2898 130.31 53.6411 130.582 52.9926C130.888 52.3782 131.126 51.9003 131.297 51.559L135.225 42.8038L136.602 39.527L143.081 23.2966H150.529L137.112 54.3238C136.738 55.2114 136.398 55.9794 136.092 56.6278C135.82 57.2763 135.599 57.8054 135.429 58.215C135.259 58.6587 135.105 59.0171 134.97 59.2902ZM133.184 48.999L121.859 23.2966H129.46L136.194 39.527H136.959L133.184 48.999Z" fill="#1F2023" fill-opacity="0.98"/>
<path d="M51.0667 23.0391C53.084 23.0391 55.1011 23.0391 57.1794 23.0391C57.1829 23.6826 57.1829 23.6826 57.1868 24.3393C57.1957 25.767 57.2095 27.1947 57.2263 28.6224C57.2362 29.4869 57.2444 30.3512 57.2485 31.2157C57.2531 32.2128 57.2658 33.2097 57.2788 34.2066C57.2793 34.5127 57.2796 34.8186 57.2799 35.134C57.3245 37.737 57.503 40.0165 59.1946 41.9449C61.6407 44.2635 62.8536 44.5838 66.0241 44.4217C67.1477 44.3145 68.0978 43.934 69.0903 43.3801C69.2576 43.2902 69.4252 43.2003 69.5978 43.1077C71.6476 41.8789 72.0554 40.1763 72.7959 37.7222C72.9489 36.8773 72.9489 36.8773 72.9489 36.1862C73.0328 36.1862 73.3733 36.1862 73.4384 36.1862C73.6378 39.7618 73.0573 42.8878 70.9576 45.628C68.887 47.9968 66.0243 49.479 62.9992 49.6492C59.3523 49.7731 57.4204 49.0935 54.7225 46.3566C53.0669 44.6772 51.7865 42.1218 51.3215 39.6591C51.2776 39.431 51.2337 39.2029 51.1886 38.9682C50.9754 37.488 51.0355 35.9883 51.0419 34.4974C51.0422 34.1661 51.0427 33.8348 51.0429 33.5036C51.044 32.637 51.0463 31.7705 51.0491 30.9039C51.0519 30.0176 51.0529 29.1313 51.0542 28.2448C51.057 26.5097 51.0613 24.7744 51.0667 23.0391Z" fill="#1F2023" fill-opacity="0.98"/>
</svg>
